<svg width="33" height="29" viewBox="0 0 33 29" fill="none" xmlns="http://www.w3.org/2000/svg">
<path d="M31.4467 15.2714C32.6262 14.1048 32.6262 12.2133 31.4467 11.0467L21.3785 1.08914C20.1989 -0.0774526 18.2865 -0.0775148 17.1068 1.08914L0.997703 17.0213C-0.181851 18.1879 -0.181851 20.0793 0.997703 21.2459L7.03863 27.2205C7.6051 27.7807 8.37338 28.0954 9.17448 28.0954H31.5763C31.9933 28.0954 32.3314 27.761 32.3314 27.3486V24.8592C32.3314 24.4468 31.9933 24.1124 31.5763 24.1124H22.5075L31.4467 15.2714ZM12.4035 11.3738L21.0479 19.9232L16.812 24.1124H9.59155L4.55745 19.1336L12.4035 11.3738Z" fill="#757575"/>
</svg>
