<svg width="40" height="41" viewBox="0 0 40 41" fill="none" xmlns="http://www.w3.org/2000/svg">
<path d="M14.8109 11.3799L12.4289 7.58711C12.0447 6.97536 12.6037 6.20724 13.3057 6.37299L21.7971 8.22457C22.2445 8.32274 22.5092 8.74417 22.4033 9.18978L20.3972 17.6341C20.2193 18.3334 19.2846 18.5034 18.9004 17.8917L16.5184 14.0988C11.3595 17.3387 10.1993 24.5504 14.6374 29.0992C17.2255 31.7768 21.3328 32.6664 24.8598 31.3423C30.4377 29.2609 32.7442 23.1681 30.5821 18.2515C30.2691 17.5381 30.5341 16.6703 31.2119 16.2447C32.0417 15.7236 33.1581 16.0271 33.5597 16.9123C36.4502 23.4188 33.4436 31.4677 26.1162 34.3255C21.2802 36.2063 15.6657 34.9743 12.1583 31.2627C6.40928 25.1487 7.97847 15.6708 14.8109 11.3799Z" fill="black" fill-opacity="0.54"/>
</svg>
