<svg width="27" height="31" viewBox="0 0 27 31" fill="none" xmlns="http://www.w3.org/2000/svg">
<path d="M22.454 21.9961C21.3291 21.9961 20.3226 22.444 19.553 23.1457L8.99974 16.9498C9.07375 16.6064 9.13295 16.2631 9.13295 15.9048C9.13295 15.5464 9.07375 15.2031 8.99974 14.8597L19.4346 8.72356C20.2338 9.47005 21.2847 9.93287 22.454 9.93287C24.911 9.93287 26.8943 7.93228 26.8943 5.45395C26.8943 2.97562 24.911 0.975037 22.454 0.975037C19.997 0.975037 18.0136 2.97562 18.0136 5.45395C18.0136 5.81226 18.0728 6.15565 18.1469 6.49903L7.71204 12.6351C6.91278 11.8887 5.8619 11.4258 4.6926 11.4258C2.23561 11.4258 0.252258 13.4264 0.252258 15.9048C0.252258 18.3831 2.23561 20.3837 4.6926 20.3837C5.8619 20.3837 6.91278 19.9208 7.71204 19.1744L18.2505 25.3851C18.1765 25.6986 18.1321 26.0271 18.1321 26.3556C18.1321 28.7592 20.071 30.715 22.454 30.715C24.837 30.715 26.7759 28.7592 26.7759 26.3556C26.7759 23.9519 24.837 21.9961 22.454 21.9961Z" fill="black" fill-opacity="0.54"/>
</svg>
