<svg width="32" height="14" viewBox="0 0 32 14" fill="none" xmlns="http://www.w3.org/2000/svg">
<path d="M16.3502 0.64917C12.2593 0.64917 8.55429 2.18264 5.69838 4.67646L2.78072 1.74893C1.80816 0.773087 0.14093 1.45463 0.14093 2.8332V11.4919C0.14093 12.3438 0.835611 13.0408 1.68467 13.0408H10.3141C11.6881 13.0408 12.3828 11.368 11.4102 10.3921L8.46167 7.43361C10.6075 5.63681 13.3399 4.52156 16.3656 4.52156C21.2438 4.52156 25.4582 7.37165 27.4651 11.4919C27.8819 12.3593 28.8699 12.793 29.7807 12.4832C30.8767 12.1269 31.4325 10.8723 30.9385 9.819C28.2832 4.39765 22.7567 0.64917 16.3502 0.64917Z" fill="black" fill-opacity="0.54"/>
</svg>
